<?xml version="1.0" encoding="UTF-8" standalone="no"?>
<svg
   height="24"
   viewBox="0 -960 960 960"
   width="24"
   version="1.1"
   id="svg4"
   sodipodi:docname="darkMode.svg"
   xml:space="preserve"
   inkscape:version="1.2.2 (b0a8486541, 2022-12-01)"
   xmlns:inkscape="http://www.inkscape.org/namespaces/inkscape"
   xmlns:sodipodi="http://sodipodi.sourceforge.net/DTD/sodipodi-0.dtd"
   xmlns="http://www.w3.org/2000/svg"
   xmlns:svg="http://www.w3.org/2000/svg"><defs
     id="defs8" /><sodipodi:namedview
     id="namedview6"
     pagecolor="#505050"
     bordercolor="#eeeeee"
     borderopacity="1"
     inkscape:showpageshadow="0"
     inkscape:pageopacity="0"
     inkscape:pagecheckerboard="0"
     inkscape:deskcolor="#505050"
     showgrid="false"
     inkscape:zoom="24.660349"
     inkscape:cx="10.563516"
     inkscape:cy="12.347757"
     inkscape:window-width="1920"
     inkscape:window-height="1021"
     inkscape:window-x="0"
     inkscape:window-y="0"
     inkscape:window-maximized="1"
     inkscape:current-layer="svg4" /><path
     id="path2"
     style="fill:#ffffff"
     d="M 769.60938 -769.60938 L 677.8125 -677.8125 L 699.0625 -658.125 L 791.79688 -748.35938 L 769.60938 -769.60938 z M 607.5 -607.5 L 565 -565 C 588.33331 -541.66669 600 -513.3333 600 -480 C 600 -446.6667 588.33331 -418.33331 565 -395 C 541.66669 -371.66669 513.3333 -360 480 -360 C 446.6667 -360 418.33331 -371.66669 395 -395 L 352.5 -352.5 C 387.52596 -317.4747 430.05205 -300 480 -300 C 529.94795 -300 572.47404 -317.4747 607.5 -352.5 C 642.5253 -387.52596 660 -430.05205 660 -480 C 660 -529.94795 642.5253 -572.47404 607.5 -607.5 z M 760 -510 L 760 -450 L 910 -450 L 910 -510 L 760 -510 z M 697.10938 -303.04688 L 657.5 -261.5625 L 748.35938 -168.20312 L 790.78125 -212.57812 L 697.10938 -303.04688 z M 282.34375 -282.34375 L 190.23438 -190.23438 L 212.26562 -168.82812 L 302.34375 -262.89062 L 282.34375 -282.34375 z M 450 -200 L 450 -50 L 510 -50 L 510 -200 L 450 -200 z " /><path
     id="path378"
     style="fill:#ffffff"
     d="M 458.82812 -819.0625 C 369.85421 -813.67784 294.69052 -778.57139 233.28125 -713.82812 C 171.87131 -649.08486 141.17188 -571.44941 141.17188 -480.9375 C 141.17188 -386.53224 174.1772 -306.32951 240.23438 -240.23438 L 493.90625 -493.90625 C 448.07105 -539.78007 425.15625 -595.42021 425.15625 -660.9375 C 425.15625 -691.55214 431.1786 -720.3959 443.28125 -747.42188 C 455.38324 -774.44718 471.6994 -797.48585 492.10938 -816.5625 C 486.77605 -817.38317 481.31924 -818.0275 475.78125 -818.4375 C 470.24326 -818.8475 464.57145 -819.0625 458.82812 -819.0625 z " /><path
     style="fill:#ffffff;stroke-width:40"
     d="M 190.23438,-190.2344 769.60936,-769.60938"
     id="path393" /><path
     style="fill:#ffffff;stroke:#ffffff;stroke-width:88;stroke-linecap:butt;stroke-dasharray:none"
     d="M 190.23438,-190.2344 769.60936,-769.60938"
     id="path1733" /></svg>
